<mxfile host="app.diagrams.net" modified="2023-10-12T03:31:25.756Z" agent="Mozilla/5.0 (Macintosh; Intel Mac OS X 10_15_7) AppleWebKit/537.36 (KHTML, like Gecko) Chrome/117.0.0.0 Safari/537.36" version="22.0.4" etag="QZ28opy_E4SJUoP7VCld" type="github">
  <diagram name="第 1 页" id="_E5e3OPJhBH-JHSsdqws">
    <mxGraphModel>
      <root>
        <mxCell id="0" />
        <mxCell id="1" parent="0" />
      </root>
    </mxGraphModel>
  </diagram>
</mxfile>
